<svg width="42" height="42" viewBox="0 0 42 42" fill="none" xmlns="http://www.w3.org/2000/svg">
<rect width="42" height="42" fill="white" fill-opacity="0.3"/>
<path d="M24.0938 19.7344H15.5625V22.8281H20.6719C20.4844 24.1406 19.125 26.7188 15.5625 26.7188C12.5156 26.7188 9.98438 24.1875 9.98438 21C9.98438 17.8594 12.5156 15.3281 15.5625 15.3281C17.3438 15.3281 18.5156 16.0781 19.1719 16.7344L21.6094 14.3906C20.0156 12.8906 18 12 15.5625 12C10.5938 12 6.5625 16.0312 6.5625 21C6.5625 26.0156 10.5938 30 15.5625 30C20.7656 30 24.2344 26.3906 24.2344 21.2344C24.2344 20.625 24.1406 20.2031 24.0938 19.7344ZM32.7656 20.0156V17.4375H30.1406V20.0156H27.5156V22.6406H30.1406V25.2656H32.7656V22.6406H35.3906V20.0156H32.7656Z" fill="white"/>
</svg>
