<svg width="42" height="42" viewBox="0 0 42 42" fill="none" xmlns="http://www.w3.org/2000/svg">
<rect width="42" height="42" fill="white" fill-opacity="0.3"/>
<path d="M30.5156 16.125C31.4531 15.4219 32.2969 14.5781 32.9531 13.5938C32.1094 13.9688 31.125 14.25 30.1406 14.3438C31.1719 13.7344 31.9219 12.7969 32.2969 11.625C31.3594 12.1875 30.2812 12.6094 29.2031 12.8438C28.2656 11.8594 27 11.2969 25.5938 11.2969C22.875 11.2969 20.6719 13.5 20.6719 16.2188C20.6719 16.5938 20.7188 16.9688 20.8125 17.3438C16.7344 17.1094 13.0781 15.1406 10.6406 12.1875C10.2188 12.8906 9.98438 13.7344 9.98438 14.6719C9.98438 16.3594 10.8281 17.8594 12.1875 18.75C11.3906 18.7031 10.5938 18.5156 9.9375 18.1406V18.1875C9.9375 20.5781 11.625 22.5469 13.875 23.0156C13.5 23.1094 13.0312 23.2031 12.6094 23.2031C12.2812 23.2031 12 23.1562 11.6719 23.1094C12.2812 25.0781 14.1094 26.4844 16.2656 26.5312C14.5781 27.8438 12.4688 28.6406 10.1719 28.6406C9.75 28.6406 9.375 28.5938 9 28.5469C11.1562 29.9531 13.7344 30.75 16.5469 30.75C25.5938 30.75 30.5156 23.2969 30.5156 16.7812C30.5156 16.5469 30.5156 16.3594 30.5156 16.125Z" fill="white"/>
</svg>
